<svg 
   xmlns:dc="http://purl.org/dc/elements/1.1/"
   xmlns:cc="http://creativecommons.org/ns#"
   xmlns:rdf="http://www.w3.org/1999/02/22-rdf-syntax-ns#"
   xmlns:svg="http://www.w3.org/2000/svg"
   xmlns="http://www.w3.org/2000/svg"
   width="122.5"
   height="122.5"
   viewBox="0 0 122.5 122.5"
   version="1.1"
>
  <g>
      <path style="fill:none;stroke:#10B981;stroke-width:5;" d="M 12.5,45 L 45,12.5 L 77.5,45" />
      <path style="fill:none;stroke:#10B981;stroke-width:5;" d="M 77.5,12.5 L 110,45 L 77.5,77.5" />
      <path style="fill:none;stroke:#10B981;stroke-width:5;" d="M 110,77.5 L 77.5,110 L 45,77.5" />
      <path style="fill:none;stroke:#10B981;stroke-width:5;" d="M 45,110 L 12.5,77.5 L 45,45" />
   </g>
   <g>
      <circle style="fill:#10B981;" stroke-width="0" cx="12.5" cy="45" r="12.5" />
      <circle style="fill:#10B981;" stroke-width="0" cx="12.5" cy="77.5" r="12.5" />
      <circle style="fill:#10B981;" stroke-width="0" cx="45" cy="12.5" r="12.5" />
      <circle style="fill:#10B981;" stroke-width="0" cx="45" cy="45" r="12.5" />
      <circle style="fill:#10B981;" stroke-width="0" cx="45" cy="77.5" r="12.5" />
      <circle style="fill:#10B981;" stroke-width="0" cx="45" cy="110" r="12.5" />
      <circle style="fill:#10B981;" stroke-width="0" cx="77.5" cy="12.5" r="12.5" />
      <circle style="fill:#10B981;" stroke-width="0" cx="77.5" cy="45" r="12.5" />
      <circle style="fill:#10B981;" stroke-width="0" cx="77.5" cy="77.5" r="12.5" />
      <circle style="fill:#10B981;" stroke-width="0" cx="77.5" cy="110" r="12.5" />
      <circle style="fill:#10B981;" stroke-width="0" cx="110" cy="45" r="12.5" />
      <circle style="fill:#10B981;" stroke-width="0" cx="110" cy="77.5" r="12.5" />
   </g>
</svg>
